# xmcd
#
# Track frame offsets: 
#        150
#        14015
#        31430
#        50252
#        69180
#        87257
#        112597
#        129762
#        153192
#        168237
#        186165
#
# Disc length: 2737 seconds
#
# Revision: 1
# Processed by: cddbd v1.5.2PL0 Copyright (c) Steve Scherf et al.
# Submitted via: ExactAudioCopy v0.99pb4
#
DISCID=790aaf0b
DTITLE=Tricky - Pre-Millenium Tension
DYEAR=1996
DGENRE=Trip-Hop
TTITLE0=Vent
TTITLE1=Christiansands
TTITLE2=Tricky Kid
TTITLE3=Bad Dreams
TTITLE4=Makes Me Wanna Die
TTITLE5=Ghetto Youth
TTITLE6=Sex Drive
TTITLE7=Bad Things
TTITLE8=Lyrics Of Fury
TTITLE9=My Evil Is Strong
TTITLE10=Piano
EXTD=
EXTT0=
EXTT1=
EXTT2=
EXTT3=
EXTT4=
EXTT5=
EXTT6=
EXTT7=
EXTT8=
EXTT9=
EXTT10=
PLAYORDER=
